Coordinates
version=1
nRows=65
nColumns=12
inDegrees=yes

Units are S.I. units (second, meters, Newtons, ...)
Angles are in degrees

endheader
time	SC_y	SC_z	SC_x	AC_y	AC_z	AC_x	GH_y	GH_z	GH_yy	EL_x	PS_y
       0.0              -49.81         0.6171          78.81           39.9          -16.3        -0.3516          6.606         -12.02          -91.6          66.83          133.2
   0.04933              -49.81         0.6165          78.81          39.91          -16.3        -0.3526          6.627         -12.02         -91.58          66.84          133.2
   0.09866              -49.81         0.6159          78.81          39.91          -16.3        -0.3536           6.65         -12.01         -91.55          66.85          133.2
     0.148               -49.8         0.6151          78.81          39.91         -16.29        -0.3548          6.674          -12.0         -91.53          66.86          133.2
    0.1973               -49.8         0.6144          78.81          39.91         -16.29         -0.356            6.7         -11.99          -91.5          66.87          133.2
    0.2467               -49.8         0.6136          78.81          39.91         -16.28        -0.3572          6.727         -11.98         -91.47          66.88          133.2
     0.296              -49.79         0.6127          78.81          39.92         -16.28        -0.3586          6.757         -11.96         -91.44           66.9          133.2
    0.3453              -49.79         0.6118          78.81          39.92         -16.27        -0.3601          6.788         -11.95         -91.41          66.91          133.2
    0.3947              -49.78         0.6108          78.81          39.92         -16.27        -0.3616          6.822         -11.94         -91.38          66.93          133.2
     0.444              -49.78         0.6098          78.81          39.93         -16.26        -0.3633          6.858         -11.92         -91.34          66.94          133.2
    0.4933              -49.77         0.6087          78.81          39.93         -16.25        -0.3651          6.897         -11.91          -91.3          66.96          133.2
    0.5427              -49.77         0.6074          78.81          39.93         -16.25        -0.3671          6.939         -11.89         -91.26          66.98          133.2
     0.592              -49.76         0.6061          78.81          39.94         -16.24        -0.3691          6.984         -11.87         -91.21           67.0          133.2
    0.6413              -49.76         0.6047          78.81          39.94         -16.23        -0.3714          7.032         -11.85         -91.16          67.02          133.2
    0.6907              -49.75         0.6032          78.81          39.95         -16.22        -0.3739          7.085         -11.83         -91.11          67.04          133.2
      0.74              -49.74         0.6015          78.81          39.95         -16.21        -0.3765          7.142         -11.81         -91.05          67.07          133.2
    0.7893              -49.73         0.5997          78.81          39.96          -16.2        -0.3794          7.204         -11.79         -90.99          67.09          133.2
    0.8386              -49.73         0.5977          78.81          39.96         -16.19        -0.3825          7.272         -11.76         -90.92          67.12          133.2
     0.888              -49.72         0.5956          78.81          39.97         -16.18         -0.386          7.345         -11.73         -90.85          67.16          133.3
    0.9373              -49.71         0.5932          78.81          39.98         -16.16        -0.3897          7.426          -11.7         -90.76          67.19          133.3
    0.9866               -49.7         0.5907          78.81          39.99         -16.15        -0.3938          7.515         -11.66         -90.67          67.23          133.3
     1.036              -49.68         0.5878          78.81          39.99         -16.13        -0.3984          7.612         -11.62         -90.57          67.27          133.3
     1.085              -49.67         0.5847          78.81           40.0         -16.12        -0.4034           7.72         -11.58         -90.46          67.32          133.3
     1.135              -49.65         0.5812          78.81          40.02          -16.1        -0.4089           7.84         -11.53         -90.34          67.37          133.3
     1.184              -49.64         0.5773          78.81          40.03         -16.07        -0.4151          7.972         -11.48         -90.21          67.43          133.3
     1.233              -49.62          0.573          78.81          40.04         -16.05         -0.422          8.121         -11.42         -90.06          67.49          133.3
     1.283               -49.6         0.5682          78.81          40.06         -16.02        -0.4297          8.287         -11.36         -89.89          67.57          133.4
     1.332              -49.57         0.5627           78.8          40.07         -15.99        -0.4384          8.473         -11.28          -89.7          67.65          133.4
     1.381              -49.55         0.5566           78.8          40.09         -15.95        -0.4482          8.684          -11.2         -89.48          67.74          133.4
     1.431              -49.52         0.5496           78.8          40.11         -15.91        -0.4594          8.924          -11.1         -89.24          67.84          133.4
      1.48              -49.48         0.5416           78.8          40.14         -15.87        -0.4721          9.197          -11.0         -88.96          67.96          133.5
     1.529              -49.44         0.5325           78.8          40.17         -15.81        -0.4867          9.511         -10.87         -88.64           68.1          133.5
     1.579               -49.4          0.522           78.8           40.2         -15.75        -0.5035          9.873         -10.73         -88.27          68.26          133.5
     1.628              -49.34         0.5097           78.8          40.24         -15.68        -0.5231          10.29         -10.56         -87.84          68.44          133.6
     1.677              -49.28         0.4953          78.79          40.28          -15.6         -0.546          10.79         -10.37         -87.34          68.66          133.7
     1.727              -49.21         0.4784          78.79          40.33          -15.5         -0.573          11.37         -10.14         -86.75          68.91          133.7
     1.776              -49.12         0.4583          78.79           40.4         -15.38        -0.6051          12.06         -9.862         -86.05          69.21          133.8
     1.825              -49.02         0.4342          78.78          40.47         -15.24        -0.6435          12.88         -9.534         -85.21          69.58          133.9
     1.875              -48.89         0.4051          78.78          40.56         -15.08          -0.69          13.89         -9.137         -84.19          70.01          134.0
     1.924              -48.73         0.3695          78.77          40.67         -14.87        -0.7469          15.11         -8.653         -82.95          70.55          134.2
     1.973              -48.54         0.3255          78.77          40.81         -14.62         -0.817          16.62         -8.054         -81.41          71.21          134.3
     2.023              -48.31         0.2707          78.76          40.98          -14.3        -0.9045           18.5         -7.308          -79.5          72.03          134.6
     2.072              -48.01         0.2017          78.75          41.19          -13.9         -1.015          20.87         -6.369         -77.08          73.07          134.8
     2.121              -47.62         0.1139          78.73          41.46         -13.39         -1.155          23.88         -5.174         -74.02          74.38          135.2
     2.171              -47.14       0.001605          78.71          41.81         -12.74         -1.334          27.74         -3.645         -70.09          76.07          135.6
      2.22              -46.51        -0.1425          78.69          42.26         -11.91         -1.564          32.69         -1.683         -65.06          78.23          136.2
     2.269              -45.71        -0.3267          78.66          42.83         -10.84         -1.858          39.01         0.8241         -58.62          80.99          137.0
     2.319               -44.7        -0.5582          78.62          43.55         -9.501         -2.228          46.95          3.976         -50.53          84.47          137.9
     2.368              -43.48        -0.8403          78.57          44.42         -7.869         -2.678          56.64          7.817         -40.67           88.7          139.0
     2.417              -42.06         -1.167          78.52          45.44         -5.976           -3.2          67.87          12.27         -29.25          93.61          140.3
     2.467              -40.52         -1.521          78.46          46.53         -3.927         -3.765          80.02          17.09         -16.88          98.92          141.8
     2.516              -38.98         -1.876           78.4          47.63         -1.878          -4.33          92.18          21.91         -4.502          104.2          143.2
     2.565              -37.56         -2.203          78.35          48.64        0.01496         -4.852          103.4          26.36          6.924          109.1          144.5
     2.615              -36.33         -2.485           78.3          49.52          1.648         -5.303          113.1           30.2          16.78          113.4          145.6
     2.664              -35.32         -2.716          78.27          50.24          2.988         -5.672          121.0          33.35          24.87          116.8          146.6
     2.713              -34.52           -2.9          78.24          50.81          4.053         -5.966          127.4          35.86          31.31          119.6          147.3
     2.763               -33.9         -3.045          78.21          51.25          4.887         -6.196          132.3          37.82          36.34          121.8          147.9
     2.812              -33.41         -3.157          78.19           51.6          5.537         -6.375          136.2          39.35          40.27          123.5          148.3
     2.861              -33.03         -3.245          78.18          51.88          6.045         -6.515          139.2          40.55          43.33          124.8          148.7
     2.911              -32.73         -3.314          78.17          52.09          6.445         -6.626          141.6          41.49          45.74          125.8          149.0
      2.96              -32.49         -3.368          78.16          52.26          6.762         -6.713          143.4          42.23          47.66          126.6          149.2
     3.009               -32.3         -3.412          78.15           52.4          7.016         -6.783          144.9          42.83           49.2          127.3          149.4
     3.059              -32.14         -3.448          78.15          52.51          7.222          -6.84          146.2          43.32          50.44          127.8          149.5
     3.108              -32.02         -3.477          78.14           52.6          7.391         -6.887          147.2          43.71          51.46          128.3          149.6
     3.157              -31.91         -3.501          78.14          52.67           7.53         -6.925          148.0          44.04           52.3          128.6          149.7
